<svg viewBox="0 0 73 49" fill="none" xmlns="http://www.w3.org/2000/svg"><path d="M46.868 24c0 12.426-10.074 22.5-22.5 22.5-12.427 0-22.5-10.074-22.5-22.5S11.94 1.5 24.368 1.5c12.426 0 22.5 10.074 22.5 22.5z" class="ccustom" fill="#ff6f3c" stop-color="#ff6f3c"/><path d="M71.132 24c0 12.426-9.975 22.5-22.28 22.5-12.304 0-22.278-10.074-22.278-22.5S36.547 1.5 48.852 1.5c12.304 0 22.28 10.074 22.28 22.5z" class="ccompli1" fill="#cf5428" stop-color="#cf5428"/><path d="M36.67 42.842C42.81 38.824 46.868 31.886 46.868 24c0-7.886-4.057-14.824-10.198-18.841A22.537 22.537 0 0026.573 24 22.537 22.537 0 0036.67 42.842z" class="ccompli2" fill="#9f3814" stop-color="#9f3814"/></svg>